<mxfile host="app.diagrams.net" modified="2024-04-04T13:38:44.774Z" agent="Mozilla/5.0 (Windows NT 10.0; Win64; x64) AppleWebKit/537.36 (KHTML, like Gecko) Chrome/123.0.0.0 Safari/537.36" version="21.1.8" etag="9qbZejBTAZcZAMenzaJ4" type="github">
  <diagram name="StrÃ¡nka-1" id="yit64ipIbVF7ZAqAAQ_2">
    <mxGraphModel>
      <root>
        <mxCell id="0" />
        <mxCell id="1" parent="0" />
      </root>
    </mxGraphModel>
  </diagram>
</mxfile>
